<?xml version="1.0" standalone="no"?><!DOCTYPE svg PUBLIC "-//W3C//DTD SVG 1.1//EN" "http://www.w3.org/Graphics/SVG/1.1/DTD/svg11.dtd"><svg t="1641623508160" class="icon" viewBox="0 0 1024 1024" version="1.1" xmlns="http://www.w3.org/2000/svg" p-id="12416" xmlns:xlink="http://www.w3.org/1999/xlink" width="200" height="200"><defs><style type="text/css"></style></defs><path d="M670.5 491.1H529.1V349.6c0-13.4-10.9-24.3-24.3-24.3s-24.3 10.9-24.3 24.3v165.7c0 13.4 10.9 24.3 24.3 24.3h165.7c13.4 0 24.3-10.9 24.3-24.3 0-13.3-10.9-24.2-24.3-24.2z" fill="#1296db" p-id="12417"></path><path d="M900.7 353.2c-21.1-51-51.6-96.7-90.9-135.9-39.3-39.3-85-69.9-136-90.9-51-21.2-105-31.9-160.5-31.9s-109.4 10.7-160.4 31.9c-51.1 21.1-96.9 51.7-136.2 91-6.5 6.5-13.2 13.7-19.7 21.4-66.4 76.2-103 173.9-103 275 0 20 1.8 41.6 5.4 64.4 13.5 88.6 54.1 168.9 117.5 232.2 46.5 46.5 101.5 80.5 163.5 101.1 42.8 14.4 87.6 21.7 133 21.7 55.5 0 109.4-10.7 160.4-31.9 51.1-21.1 96.9-51.7 136.2-91 39.3-39.3 69.9-85 90.9-136 21.2-51 31.9-104.9 31.9-160.5-0.1-55.6-10.8-109.6-32.1-160.6zM378.5 156.6c34.4-13 70.5-20.9 107.4-23.5h0.1c2.8-0.2 5.8-0.4 8.8-0.5h0.8c2.8-0.1 5.6-0.2 8.3-0.3 0 0 6.4-0.1 8.9-0.1h1.1c2.5 0 8.9 0.1 8.9 0.1l8.4 0.3h0.7c43.1 2.1 85.1 11.3 124.9 27.4l0.2 0.1c2.3 0.9 4.7 2 7.6 3.2l1.4 0.6c2.1 0.9 4.3 1.9 6.4 2.9 1.1 0.5 6.3 3 7.8 3.7 1.8 0.9 7 3.5 7.7 3.9 2.3 1.2 7.7 4.1 7.7 4.1 13.3 7.2 26.3 15.4 38.6 24.1l0.1 0.1c2.3 1.7 4.7 3.4 7.1 5.2 0.4 0.3 0.9 0.7 1.3 1l0.3 0.3c1.8 1.4 11.5 9 12.4 9.8 1.7 1.4 6.3 5.3 6.9 5.9 2 1.7 3.9 3.4 5.8 5.1l8 7.4c2.4 2.2 4.7 4.5 7 6.8s7 7.2 7 7.2c2 2.1 4.1 4.4 6.2 6.7 0 0 4.4 4.9 6.1 6.9 0.5 0.6 4.4 5.2 5.9 7 0.7 0.8 4.5 5.5 5.7 7.1 1.1 1.4 4.7 6.1 5.5 7.1 1.5 1.9 5.3 7.3 5.3 7.3l4.8 6.9 0.3 0.5c1.6 2.4 3.2 4.8 4.8 7.3l0.2 0.4c1.5 2.4 3.1 4.8 4.6 7.4l0.4 0.6c1.4 2.3 2.8 4.7 4.2 7.1l0.7 1.3c1.2 2.1 2.4 4.2 3.6 6.4 0.4 0.8 0.9 1.6 1.3 2.5 0.9 1.7 1.8 3.5 2.8 5.2l2.1 4.2c0.6 1.2 1.2 2.3 1.7 3.5l3 6.3 0.7 1.4c1.3 2.8 2.4 5.2 3.4 7.5l0.1 0.3c43.3 99.7 41.9 213.5-3.6 312.2 0 0-4.5 9.3-4.9 10.1-0.9 1.8-1.8 3.6-2.7 5.3-0.7 1.4-3.5 6.5-4.1 7.7-1 1.8-2 3.5-3 5.3-0.1 0.1-0.1 0.2-0.2 0.3l-1.2 2.1c-1.2 2-4.3 7.2-4.6 7.8l-3.9 6.3s-8.9 13.3-10.2 15.2c-0.7 1-4.2 5.8-5.3 7.3-1.2 1.5-2.3 3.1-3.5 4.6-0.7 0.9-4.7 6-6.1 7.8-0.5 0.6-4.9 5.9-6.5 7.8 0 0-4.9 5.6-6.8 7.7 0 0-9.2 9.9-13.7 14.5-4.5 4.5-9.3 9.1-14.1 13.4 0 0-4.7 4.1-6.9 6.1l-1 0.9-0.2 0.2c-1.8 1.6-3.7 3.2-5.8 4.9-0.7 0.5-12.7 10-14.2 11.1-1.6 1.2-6.5 4.7-7.3 5.3-1.9 1.4-7.4 5.1-7.4 5.1-2.2 1.5-7.7 5-7.7 5-2.2 1.4-8 4.9-8 4.9-2.1 1.3-16.2 9.3-17.2 9.8-1.6 0.9-7.8 4.1-9.4 4.9-1.1 0.5-7.2 3.5-9.6 4.6 0 0-6.6 3-8.9 4l-0.3 0.1C615 886.4 559.5 897.2 504.5 896h-1.3c-3-0.1-5.7-0.2-8.3-0.3h-0.2c-21.2-1-42.5-3.8-63.3-8.3l-0.4-0.1c-2.6-0.6-5.3-1.2-8.2-1.9-0.5-0.1-0.9-0.2-1.4-0.4l-0.8-0.2c-1.7-0.4-3.4-0.9-5.1-1.3l-0.5-0.1c-1.1-0.3-2.2-0.6-3.2-0.9-0.3-0.1-0.7-0.2-1-0.3l-0.8-0.2c-95.7-26.9-176.1-89.3-226.5-175.8-0.1-0.2-0.2-0.3-0.3-0.4-0.1-0.2-0.2-0.3-0.3-0.5-0.1-0.1-0.1-0.2-0.2-0.2l-2.6-4.4-0.2 0.1c-20.4-36.5-34.5-75.9-42-117.3l0.1-0.1-0.7-3.8c-1.4-8.2-2.6-16.3-3.5-23.9-5-46.7-1.4-93.4 10.5-138.7 0.1-0.2 0.1-0.3 0.1-0.5s0.1-0.4 0.1-0.6c0-0.1 0-0.2 0.1-0.3l1.3-4.9-0.3-0.1c11.4-40.3 29.5-78 53.3-112.5l0.1-0.1 2.2-3.2c13.2-18.8 26.6-34.8 40.8-49.2l2.1-2.1c1.7-1.6 3.3-3.3 5-4.9 0.8-0.7 1.6-1.5 2.3-2.2 1.6-1.5 3.1-2.9 4.7-4.4 0.9-0.8 1.8-1.7 2.8-2.5 1.3-1.2 2.6-2.3 4-3.5 1.2-1 2.4-2.1 3.6-3.1l1.4-1.1c24.2-20.3 50.8-37.5 79.1-51.2l1.6-0.7c2-1 4.1-1.9 6.1-2.9 1.3-0.6 2.7-1.2 4-1.8 1.2-0.5 2.5-1.1 3.7-1.6 2.1-0.9 4.2-1.8 6.4-2.7l1.4-0.6c2.9-1.1 5.4-2.1 7.7-3l-1.8-4.7 2.4 4z" fill="#1296db" p-id="12418"></path><path d="M513.4 938.6c-46.1 0-91.4-7.4-134.8-22-62.8-20.9-118.5-55.4-165.6-102.4C148.8 750 107.6 668.7 93.9 579c-3.6-23-5.4-44.9-5.4-65.2 0-102.4 37.1-201.4 104.4-278.7 6.6-7.8 13.4-15.1 20-21.7 39.8-39.8 86.2-70.8 138-92.1C402.5 99.9 457.1 89 513.4 89s111 10.9 162.6 32.3c51.7 21.3 98 52.3 137.8 92.1 39.7 39.7 70.7 86.1 92 137.7 21.5 51.7 32.4 106.4 32.4 162.7 0 56.3-10.9 111-32.3 162.6-21.3 51.7-52.3 98-92.1 137.8-39.8 39.8-86.2 70.8-138 92.1-51.6 21.5-106.2 32.3-162.4 32.3z m0-838.7c-54.8 0-108 10.6-158.3 31.5-50.4 20.8-95.6 51-134.4 89.8-6.4 6.4-13 13.5-19.4 21.1A412.825 412.825 0 0 0 99.5 513.8c0 19.7 1.8 41.1 5.3 63.5 13.3 87.4 53.4 166.6 115.9 229.1 45.8 45.8 100.1 79.4 161.3 99.8 42.3 14.2 86.4 21.4 131.3 21.4 54.8 0 108-10.6 158.2-31.5 50.4-20.8 95.6-51 134.4-89.8 38.8-38.8 68.9-83.9 89.7-134.3 20.9-50.3 31.5-103.6 31.5-158.4 0-54.8-10.6-108.2-31.5-158.5-20.8-50.3-50.9-95.4-89.7-134.1-38.8-38.8-83.9-68.9-134.3-89.7-50.2-20.8-103.4-31.4-158.2-31.4z m-0.2 801.1c-2.8 0-5.7 0-8.5-0.1h-1.3c-3-0.1-5.8-0.2-8.4-0.3h-0.2c-21.6-1-43.2-3.9-64.2-8.5l-0.4-0.1c-2.7-0.6-5.4-1.2-8.4-1.9-0.5-0.1-1-0.2-1.5-0.4l-0.8-0.2c-1.7-0.4-3.5-0.9-5.2-1.3l-0.5-0.1-3.3-0.9c-0.4-0.1-0.7-0.2-1.1-0.3l-0.8-0.2c-97-27.3-178.6-90.6-229.8-178.4l-0.2-0.3c-0.1-0.1-0.2-0.2-0.2-0.4l-0.3 0.2-2.8-5c-20.7-37-35-77.1-42.6-119l-0.8-4.3 0.2-0.1c-1.4-8.2-2.6-16.2-3.5-23.9-5-47.4-1.4-94.8 10.7-140.8l0.1-0.4c0-0.1 0.1-0.3 0.1-0.4l-0.4-0.1 1.5-5.4c11.3-40.2 29.5-78.6 54.1-114.2l2.4-3.3c13.4-19 26.9-35.3 41.4-49.9l2.2-2.2c1.7-1.7 3.4-3.3 5.1-4.9 0.8-0.8 1.6-1.5 2.4-2.2 1.6-1.5 3.2-3 4.8-4.4 0.9-0.9 1.9-1.7 2.8-2.5 1.3-1.2 2.7-2.4 4-3.5 1.2-1.1 2.4-2.1 3.7-3.2l1.4-1.2c24.5-20.6 51.5-38 80.2-51.9l1.6-0.8c2.1-1 4.2-2 6.2-2.9 1.4-0.6 2.7-1.2 4.1-1.8 1.2-0.6 2.5-1.1 3.8-1.6 2.2-0.9 4.3-1.8 6.5-2.7l1.4-0.6c2.9-1.2 5.4-2.2 7.8-3l0.1 0.4 0.2-0.1-0.1-0.4c34.9-13.2 71.6-21.2 108.9-23.9h0.1c2.9-0.2 5.9-0.4 8.9-0.5h0.8c2.8-0.1 5.7-0.2 8.4-0.3 0.3 0 6.5-0.1 9.1-0.1h1.1c2.6 0 8.8 0.1 9 0.1 2.8 0.1 5.7 0.2 8.6 0.3h0.6c43.7 2.1 86.4 11.5 126.8 27.8l0.2 0.1c2.3 0.9 4.8 2 7.7 3.2l1.4 0.6c2.2 1 4.3 1.9 6.5 2.9 1.2 0.6 6.4 3 7.9 3.7 1.9 0.9 7 3.5 7.8 3.9 2.4 1.2 7.6 4 7.8 4.1 13.5 7.4 26.7 15.6 39.2 24.5l0.1 0.1c2.4 1.7 4.8 3.5 7.2 5.2 0.5 0.3 0.9 0.7 1.4 1l0.3 0.3c1.8 1.3 11.6 9.1 12.6 9.9 1.7 1.4 6.4 5.4 7 5.9 2 1.7 4 3.5 5.9 5.2l8 7.4c2.5 2.3 4.8 4.6 7.1 6.9 2.3 2.3 6.9 7.1 7.1 7.3 2.1 2.2 4.2 4.5 6.3 6.8 0.2 0.2 4.4 5 6.2 7 0.5 0.6 4.5 5.3 6 7.1 0.8 0.9 4.5 5.6 5.7 7.2 1.1 1.4 4.8 6.2 5.5 7.2 1.5 2 5.2 7.1 5.3 7.3 1.7 2.4 3.3 4.7 4.9 7l0.3 0.5c1.6 2.4 3.3 4.9 4.9 7.4l0.2 0.4c1.6 2.4 3.1 4.9 4.7 7.5l0.4 0.6c1.4 2.3 2.8 4.8 4.2 7.2l0.7 1.3c1.2 2.1 2.4 4.3 3.6 6.5 0.5 0.8 0.9 1.7 1.4 2.5 0.9 1.8 1.9 3.5 2.8 5.3 0.7 1.4 1.5 2.8 2.2 4.3 0.6 1.2 1.2 2.4 1.8 3.5 1 2.1 2.1 4.2 3.1 6.4l0.7 1.5c1.3 2.8 2.4 5.2 3.4 7.6l0.1 0.3c43.9 101.2 42.5 216.6-3.7 316.7-0.5 1-4.5 9.5-4.9 10.3-0.9 1.8-1.8 3.6-2.8 5.4-0.8 1.5-3.5 6.7-4.2 7.8l-3 5.4-0.2 0.4-1.2 2.1c-1.2 2-4.3 7.2-4.7 7.9-1.3 2.2-2.7 4.3-4 6.4l-0.1 0.1c-0.4 0.5-9 13.4-10.3 15.3-0.7 0.9-4.2 5.9-5.4 7.4-1.2 1.6-2.3 3.1-3.5 4.7-0.7 0.9-4.8 6.1-6.2 7.9-0.5 0.7-4.9 5.9-6.5 7.9-0.2 0.3-5 5.7-6.9 7.8-0.4 0.5-9.3 10.1-13.9 14.7s-9.4 9.2-14.3 13.6c-0.2 0.2-4.7 4.2-7 6.2l-1.2 1c-1.9 1.6-3.8 3.2-5.9 4.9-0.7 0.6-12.9 10.1-14.4 11.3-1.6 1.2-6.5 4.7-7.4 5.4-2 1.4-7.3 5-7.5 5.2-2.2 1.5-7.5 5-7.8 5.1-2.3 1.4-7.8 4.9-8.1 5-2.2 1.3-16.3 9.3-17.5 10-1.6 0.9-7.9 4.1-9.5 4.9-1.2 0.6-7.4 3.6-9.7 4.7-0.3 0.1-6.7 3.1-9 4.1l-0.3 0.1C619.3 890 566.1 901 513.2 901zM188.4 702.8c49.7 85.2 129 146.8 223.2 173.3l0.8 0.2c0.3 0.1 0.7 0.2 1 0.3 1.1 0.3 2.1 0.6 3.2 0.9l0.5 0.1c1.7 0.4 3.4 0.9 5.1 1.3l0.8 0.2c0.5 0.1 0.9 0.2 1.4 0.3 2.9 0.7 5.5 1.3 8.1 1.9l0.4 0.1c20.5 4.5 41.5 7.2 62.4 8.2h0.2c2.6 0.1 5.2 0.2 8.2 0.3h1.3c54.1 1.2 108.9-9.5 158.3-30.9l0.3-0.1c2.2-0.9 8.7-3.9 8.8-4 2.2-1 8.3-4 9.4-4.6 1.5-0.7 7.7-4 9.2-4.8 0.9-0.5 14.8-8.4 16.9-9.6 0 0 5.7-3.5 7.8-4.9 0 0 5.5-3.5 7.6-5 0 0 5.4-3.7 7.3-5.1 0.7-0.5 5.6-4 7.2-5.2 1.3-1 13.3-10.3 14-11 2-1.7 3.9-3.2 5.7-4.8l1.2-1c2.2-1.9 6.8-6 6.8-6 4.7-4.3 9.4-8.7 13.9-13.2 4.4-4.4 13.5-14.2 13.6-14.3 1.8-2 6.6-7.5 6.7-7.6 1.5-1.8 5.8-7 6.3-7.6 1.4-1.7 5.4-6.8 6-7.7 1.2-1.5 2.3-3 3.4-4.6 1.1-1.5 4.6-6.3 5.2-7.2 1-1.5 7.6-11.3 10.1-15 1.3-2 2.5-4 3.8-6.1 0.3-0.5 3.4-5.7 4.5-7.6 0.4-0.7 0.8-1.4 1.2-2l0.2-0.4c1-1.7 2-3.5 2.9-5.2 0.6-1.1 3.3-6.2 4.1-7.6 0.9-1.7 1.8-3.5 2.7-5.3 0.3-0.6 3-6.3 4.8-10 44.9-97.2 46.2-209.3 3.5-307.6l-0.1-0.3c-1-2.2-2-4.6-3.3-7.3l-0.7-1.4c-1-2.1-2-4.1-3-6.2-0.6-1.1-1.1-2.3-1.7-3.4-0.7-1.4-1.4-2.8-2.1-4.1l-2.7-5.1c-0.4-0.8-0.9-1.6-1.3-2.4-1.1-2.1-2.3-4.2-3.5-6.3l-0.7-1.3c-1.3-2.3-2.7-4.7-4.1-7l-0.4-0.6c-1.5-2.5-3-4.9-4.5-7.2l-0.2-0.4c-1.5-2.4-3.1-4.8-4.7-7.2l-0.3-0.5c-1.5-2.3-3.1-4.6-4.7-6.8 0 0-3.8-5.3-5.2-7.2-0.7-1-4.3-5.7-5.4-7-1.2-1.5-5-6.2-5.6-7-1.4-1.7-5.3-6.3-5.8-6.9-1.7-2-6-6.8-6.1-6.9-2-2.2-4-4.4-6-6.5 0 0-4.7-4.9-6.9-7.1-2.2-2.2-4.5-4.5-6.9-6.7l-7.9-7.3c-1.8-1.6-3.7-3.3-5.7-5-0.6-0.5-5.2-4.4-6.8-5.8-0.8-0.6-10.4-8.3-12.2-9.6l-0.4-0.3c-0.4-0.3-0.9-0.7-1.3-1-2.3-1.7-4.7-3.5-7-5.1l-0.1-0.1c-12.1-8.6-25-16.6-38.1-23.8 0 0-5.3-2.8-7.6-4l-7.6-3.8c-1.4-0.7-6.5-3.1-7.6-3.6-2.1-1-4.2-1.9-6.3-2.8l-1.4-0.6c-2.8-1.2-5.2-2.2-7.5-3.1l-0.2-0.1c-39.3-15.9-80.7-25-123.2-27.1h-0.6c-2.8-0.1-5.6-0.2-8.3-0.3 0 0-6.3-0.1-8.8-0.1h-1.1c-2.4 0-8.8 0.1-8.8 0.1-2.6 0.1-5.4 0.2-8.1 0.3h-0.8c-2.9 0.1-5.8 0.3-8.6 0.5h-0.1c-36.3 2.6-71.9 10.4-105.8 23.2l-0.5 0.2c-2.2 0.8-4.5 1.8-7.2 2.8l-1.4 0.6c-2.1 0.8-4.2 1.7-6.3 2.6-1.2 0.5-2.4 1.1-3.6 1.6-1.3 0.6-2.7 1.2-4 1.8-2 0.9-4 1.9-6.1 2.8l-1.5 0.7c-27.9 13.5-54.1 30.4-77.9 50.4l-1.4 1.2-3.6 3c-1.3 1.1-2.6 2.3-3.9 3.4-0.9 0.8-1.8 1.6-2.8 2.5-1.6 1.4-3.1 2.8-4.6 4.3-0.8 0.7-1.5 1.5-2.3 2.2-1.7 1.6-3.3 3.2-4.9 4.8l-2.1 2.1c-14 14.1-27.1 30-40.2 48.5l-2.4 3.3c-22.7 33-39.9 68.4-50.9 105.4h0.1l-2.6 10.3c0 0.2-0.1 0.4-0.1 0.6 0 0.2-0.1 0.5-0.2 0.7-11.8 44.7-15.3 90.7-10.4 136.7 0.9 7.5 2 15.5 3.4 23.6l1.4 8.1h-0.1c7.2 37.3 19.9 73 37.9 106.3h0.1l5.4 9.2v-0.1l-4.5 3.1 4.6-2.9c0.1 0.2 0.2 0.4 0.3 0.5-0.1 0.3 0 0.6 0.1 0.8z" fill="#1296db" p-id="12419"></path><path d="M504.8 844.1c-13.4 0-24.3 10.9-24.3 24.3v39.7c0 13.4 10.9 24.3 24.3 24.3s24.3-10.9 24.3-24.3v-39.7c0-13.4-10.9-24.3-24.3-24.3zM902.2 489.5h-39.7c-13.4 0-24.3 10.9-24.3 24.3s10.9 24.3 24.3 24.3h39.7c13.4 0 24.3-10.9 24.3-24.3s-10.9-24.3-24.3-24.3zM164.2 489.5h-39.7c-13.4 0-24.3 10.9-24.3 24.3s10.9 24.3 24.3 24.3h39.7c13.4 0 24.3-10.9 24.3-24.3s-10.9-24.3-24.3-24.3zM504.8 94.8c-13.4 0-24.3 10.9-24.3 24.3v39.7c0 13.4 10.9 24.3 24.3 24.3s24.3-10.9 24.3-24.3v-39.7c0-13.4-10.9-24.3-24.3-24.3z" fill="#1296db" p-id="12420"></path></svg>