<?xml version="1.0" encoding="utf-8"?>
<!-- Generator: Adobe Illustrator 23.0.0, SVG Export Plug-In . SVG Version: 6.00 Build 0)  -->
<svg version="1.1" id="图层_1" xmlns="http://www.w3.org/2000/svg" xmlns:xlink="http://www.w3.org/1999/xlink" x="0px" y="0px"
	 viewBox="0 0 800 400" style="enable-background:new 0 0 800 400;" xml:space="preserve">
<style type="text/css">
	.st0{fill:#FFFFFF;}
	.st1{enable-background:new    ;}
	.st2{fill:#1E74CF;}
	.st3{fill:#0ACDBB;}
	.st4{fill:#2273CB;}
</style>
<g>
	<g>
		<polygon class="st0" points="-338.5,92.3 -356.8,92.3 -350.8,73.8 -332.5,73.8 		"/>
		<path class="st0" d="M-320.4,137.3h18.3l14.7-45l1.3-3.9c2.3-7.2-3-14.6-10.6-14.6h-29.8l-6,18.5h26.9L-320.4,137.3z"/>
		<polygon class="st0" points="-325.7,137.3 -313.2,98.8 -334.8,98.8 -347.3,137.3 		"/>
		<path class="st0" d="M-353.2,137.3l12.5-38.4H-359l-7.8,23.8c-2.3,7.2,3,14.6,10.6,14.6L-353.2,137.3L-353.2,137.3z"/>
	</g>
	<g>
		<path class="st0" d="M-268.5,132.2c-0.2,0-0.4-0.1-0.6-0.2c-0.2-0.2-0.2-0.4-0.2-0.6V131c0-0.2,0.1-0.4,0.2-0.6
			c0.2-0.2,0.4-0.2,0.6-0.2h1.3c0.1,0,0.1,0,0.1-0.1v-5.8c0-0.1,0-0.1-0.1-0.1h-1c-0.2,0-0.4-0.1-0.6-0.2c-0.2-0.2-0.2-0.3-0.2-0.5
			s0.1-0.4,0.2-0.6c0.1-0.2,0.3-0.3,0.5-0.3c0.4-0.1,0.8-0.2,1.1-0.4c0.6-0.3,1.1-0.4,1.5-0.4h0.2c0.2,0,0.4,0.1,0.6,0.2
			c0.2,0.2,0.2,0.4,0.2,0.6v7.6c0,0.1,0,0.1,0.1,0.1h1c0.2,0,0.4,0.1,0.6,0.2c0.2,0.2,0.2,0.4,0.2,0.6v0.4c0,0.2-0.1,0.4-0.2,0.6
			c-0.2,0.2-0.4,0.2-0.6,0.2L-268.5,132.2L-268.5,132.2z"/>
		<path class="st0" d="M-248.2,131.3c0,0.2-0.1,0.4-0.3,0.6c-0.2,0.2-0.4,0.2-0.6,0.2h-0.9c-0.2,0-0.4-0.1-0.6-0.2
			c-0.1-0.1-0.2-0.3-0.2-0.5c0-1.2,0.3-2.6,0.8-4.1c0.4-1.1,1-2.3,1.8-3.5c0,0,0,0,0-0.1c0,0,0,0-0.1,0h-3.6c-0.2,0-0.4-0.1-0.6-0.2
			c-0.2-0.2-0.2-0.4-0.2-0.6v-0.5c0-0.2,0.1-0.4,0.2-0.6c0.2-0.2,0.4-0.2,0.6-0.2h5.6c0.2,0,0.4,0.1,0.5,0.2
			c0.1,0.2,0.2,0.3,0.2,0.5c0,0.5-0.2,1-0.5,1.4c-0.5,0.6-0.8,1.2-1.1,1.7c-0.3,0.5-0.5,1.1-0.7,1.8c-0.2,0.6-0.3,1.2-0.4,1.9
			S-248.1,130.5-248.2,131.3"/>
		<path class="st0" d="M-232.2,132.3c-1,0-1.8-0.4-2.4-1.1c-0.6-0.8-0.9-1.8-0.9-3.1c0-0.6,0.1-1.2,0.3-1.8c0.2-0.5,0.4-1,0.8-1.3
			c0.3-0.4,0.7-0.6,1.1-0.8s0.8-0.3,1.2-0.3c0.4,0,0.7,0.1,1,0.2c0.3,0.1,0.6,0.3,0.8,0.6l0,0l0,0l-0.1-1.1v-1.9
			c0-0.2,0.1-0.4,0.2-0.6c0.2-0.2,0.4-0.2,0.6-0.2h0.9c0.2,0,0.4,0.1,0.6,0.2c0.2,0.2,0.2,0.4,0.2,0.6v9.7c0,0.2-0.1,0.4-0.2,0.6
			c-0.2,0.2-0.4,0.2-0.6,0.2h-0.5c-0.2,0-0.4-0.1-0.6-0.2c-0.2-0.1-0.3-0.3-0.3-0.5v-0.1l0,0l0,0c-0.3,0.3-0.6,0.5-1,0.7
			C-231.5,132.3-231.9,132.3-232.2,132.3 M-231.6,130.3c0.5,0,0.9-0.2,1.1-0.6c0-0.1,0.1-0.1,0.1-0.2v-3c0-0.1,0-0.1-0.1-0.2
			c-0.3-0.3-0.7-0.4-1.2-0.4c-0.4,0-0.7,0.2-1,0.5c-0.3,0.4-0.4,0.9-0.4,1.6C-233,129.5-232.5,130.3-231.6,130.3"/>
		<path class="st0" d="M-213.8,132.3c-1.2,0-2.1-0.4-2.9-1.1c-0.8-0.8-1.1-1.8-1.1-3.1c0-0.9,0.2-1.6,0.6-2.3s0.9-1.1,1.5-1.5
			c0.6-0.3,1.3-0.5,2.1-0.5c0.6,0,1.2,0.1,1.7,0.4c0.2,0.1,0.3,0.3,0.3,0.5v0.1c0,0.2-0.1,0.3-0.2,0.5l-0.2,0.3
			c-0.2,0.2-0.4,0.3-0.7,0.3c-0.1,0-0.3,0-0.5-0.1c-0.1,0-0.2,0-0.3,0c-0.5,0-1,0.2-1.3,0.6c-0.3,0.4-0.5,0.9-0.5,1.6
			c0,0.7,0.2,1.2,0.5,1.6c0.3,0.4,0.7,0.6,1.2,0.6c0.2,0,0.5-0.1,0.7-0.2c0.1-0.1,0.3-0.1,0.4-0.1s0.1,0,0.2,0
			c0.2,0,0.4,0.2,0.5,0.3l0.2,0.2c0.1,0.1,0.1,0.3,0.1,0.5c0,0.1,0,0.1,0,0.2c0,0.2-0.2,0.4-0.4,0.5
			C-212.4,132.2-213,132.3-213.8,132.3"/>
		<path class="st0" d="M-199.8,132.3c-0.4,0-0.8-0.1-1.1-0.4c-0.3-0.3-0.4-0.7-0.4-1.1c0-0.4,0.1-0.8,0.4-1.1s0.6-0.4,1.1-0.4
			c0.4,0,0.8,0.1,1.1,0.4c0.3,0.3,0.4,0.7,0.4,1.1c0,0.4-0.1,0.8-0.4,1.1C-199,132.2-199.3,132.3-199.8,132.3"/>
		<path class="st0" d="M-184.2,132.3c-1.2,0-2.1-0.4-2.9-1.1c-0.8-0.8-1.1-1.8-1.1-3.1c0-0.9,0.2-1.6,0.6-2.3s0.9-1.1,1.5-1.5
			c0.6-0.3,1.3-0.5,2.1-0.5c0.6,0,1.2,0.1,1.7,0.4c0.2,0.1,0.3,0.3,0.3,0.5v0.1c0,0.2-0.1,0.3-0.2,0.5l-0.2,0.3
			c-0.2,0.2-0.4,0.3-0.7,0.3c-0.1,0-0.3,0-0.5-0.1c-0.1,0-0.2,0-0.3,0c-0.5,0-1,0.2-1.3,0.6c-0.3,0.4-0.5,0.9-0.5,1.6
			c0,0.7,0.2,1.2,0.5,1.6c0.3,0.4,0.7,0.6,1.2,0.6c0.2,0,0.5-0.1,0.7-0.2c0.1-0.1,0.3-0.1,0.4-0.1s0.1,0,0.2,0
			c0.2,0,0.4,0.2,0.5,0.3l0.2,0.2c0.1,0.1,0.1,0.3,0.1,0.5c0,0.1,0,0.1,0,0.2c0,0.2-0.2,0.4-0.4,0.5
			C-182.8,132.2-183.5,132.3-184.2,132.3"/>
		<path class="st0" d="M-168.6,132.3c-0.5,0-1-0.1-1.5-0.3s-0.9-0.5-1.3-0.8c-0.4-0.4-0.7-0.8-0.9-1.3c-0.2-0.5-0.3-1.1-0.3-1.8
			c0-0.6,0.1-1.2,0.3-1.8c0.2-0.5,0.5-1,0.9-1.3c0.4-0.4,0.8-0.6,1.3-0.8s1-0.3,1.5-0.3s1,0.1,1.5,0.3s0.9,0.5,1.3,0.8
			c0.4,0.4,0.7,0.8,0.9,1.3s0.3,1.1,0.3,1.8c0,0.6-0.1,1.2-0.3,1.8c-0.2,0.5-0.5,1-0.9,1.3c-0.4,0.4-0.8,0.6-1.3,0.8
			S-168.1,132.3-168.6,132.3 M-168.6,130.3c0.5,0,0.8-0.2,1-0.6c0.2-0.4,0.3-0.9,0.3-1.6c0-0.7-0.1-1.2-0.3-1.6
			c-0.2-0.4-0.6-0.6-1-0.6c-0.5,0-0.8,0.2-1,0.6c-0.2,0.4-0.3,0.9-0.3,1.6c0,0.7,0.1,1.2,0.3,1.6
			C-169.4,130.2-169.1,130.3-168.6,130.3"/>
		<path class="st0" d="M-153.8,132.2c-0.2,0-0.4-0.1-0.6-0.2c-0.2-0.2-0.2-0.4-0.2-0.6V125c0-0.2,0.1-0.4,0.2-0.6
			c0.2-0.2,0.4-0.2,0.6-0.2h0.4c0.2,0,0.4,0.1,0.6,0.2c0.2,0.2,0.3,0.3,0.3,0.6v0.2l0,0l0,0c0.4-0.4,0.8-0.7,1.1-0.9
			c0.4-0.2,0.8-0.3,1.3-0.3c1,0,1.7,0.4,2.2,1.2c0,0.1,0.1,0.1,0.1,0c0.4-0.4,0.8-0.7,1.2-0.9s0.8-0.3,1.3-0.3
			c0.8,0,1.5,0.3,1.9,0.9c0.4,0.6,0.6,1.4,0.6,2.4v4.2c0,0.2-0.1,0.4-0.2,0.6c-0.2,0.2-0.4,0.2-0.6,0.2h-0.9c-0.2,0-0.4-0.1-0.6-0.2
			c-0.2-0.2-0.2-0.4-0.2-0.6v-4c0-0.5-0.1-0.9-0.2-1.1c-0.1-0.2-0.4-0.3-0.7-0.3c-0.4,0-0.8,0.2-1.2,0.7c0,0-0.1,0.1-0.1,0.2v4.5
			c0,0.2-0.1,0.4-0.2,0.6c-0.2,0.2-0.4,0.2-0.6,0.2h-0.9c-0.2,0-0.4-0.1-0.6-0.2c-0.2-0.2-0.2-0.4-0.2-0.6v-4c0-0.5-0.1-0.9-0.2-1.1
			c-0.1-0.2-0.4-0.3-0.7-0.3c-0.4,0-0.8,0.2-1.2,0.7c0,0-0.1,0.1-0.1,0.2v4.5c0,0.2-0.1,0.4-0.2,0.6c-0.2,0.2-0.4,0.2-0.6,0.2h-0.8
			C-153.8,132.3-153.8,132.2-153.8,132.2z"/>
		<g class="st1">
			<path class="st0" d="M-252,114.2h-7.6V90.1c-3,2.1-6.6,3.5-10.9,4.1l-0.6-5.9c5.3-2.2,9.5-4,11.6-8.4h7.6v34.3L-252,114.2
				L-252,114.2z"/>
			<path class="st0" d="M-233.4,114.2h-7.1c1-9.6,4.4-19.2,11.4-28.9h-17.6v-4.9h25.2v4.9C-228.8,95.3-232.8,105-233.4,114.2z"/>
			<path class="st0" d="M-208.3,106.5c1.9-1,3-1.3,4.4-2l0.7,5.7c-3.2,2.5-7.6,3.9-11.9,5V94.9h-3v-5l9.8,0.3V106.5z M-210.3,79
				c0.5,2.7,2,5.2,2.6,8.2h-6.9c-0.5-2.6-1.9-4.8-1.9-8.2H-210.3z M-181.6,85.3h-5.9v23.8c0,3.8-2,5.7-5.9,5.7h-6.2l-0.1-4.6h3
				c1.3,0.1,1.9-0.2,1.8-1.6V85.4h-9.7v-4.8h22.8v4.8L-181.6,85.3L-181.6,85.3z"/>
			<path class="st0" d="M-167,81.5c-0.2-0.8,0.1-1.7,0.5-2.7h-5.4c-0.8,0.4-0.9,2.7-0.9,2.7h-3.5v13h-1.6v4.1h1.6v4.1
				c-0.3,7.1-0.2,8.9-2.1,8.6l0.2,4c5.8,0,7.4-6.6,7-13.2v-0.5c0.3,1.5,0.5,3.1,0.6,4.9h3.3v2.7c0.1,1.3-0.4,1.9-1.4,1.7h-1.3v4h3
				c3.3,0.1,4.9-1.5,4.8-4.8V81.4h-4.8L-167,81.5L-167,81.5z M-167.1,105.2c-0.1-1.4-0.4-3-1-4.8h-3v-1.7h4V105.2z M-167.1,94.5h-4
				v-6.2c0.3,1.8,0.5,3.1,0.5,3.8c0.1,0.3,0.2,0.6,0.2,0.8h3.2c-0.1-2.2-0.4-4.2-1-5.9h-2.9v-1.4h4L-167.1,94.5L-167.1,94.5z"/>
			<path class="st0" d="M-141,89.3v4.3c-0.5-0.2-1.9-0.8-1.9-0.8l-1.1-0.5l-1.7-1.1c-2.3-1.4-4.3-3.3-5.9-5.7
				c-1.4,2.4-3.1,4.3-5.2,5.7l-3.4,1.8c-0.7,0.4-1,0.5-1.6,0.6v-4.3c3.2-2.5,5.5-6.1,7-10.6h6.5C-146.8,82.8-144.3,86.5-141,89.3z"
				/>
		</g>
		<path class="st0" d="M-141.8,107.2v2.4c0.1,3.6-1.6,5.3-5.1,5.2h-8.2c-3.6,0.1-5.3-1.8-5.2-5.7V94.5v-1.1h17V94v6.2
			c0.2,4.2-1.6,6.5-5.8,6.3h-3l-0.2-4.8l1.3,0.1c1.3,0.1,1.9-0.5,1.7-1.9v-2.7h-4.6v11.3c-0.1,1.6,0.5,2.3,1.9,2.2h3.2
			c1.3,0.1,1.8-0.5,1.7-1.9l-0.3-1.6H-141.8z"/>
	</g>
</g>
<g>
	<g>
		<polygon class="st2" points="-338.5,281.3 -356.8,281.3 -350.8,262.8 -332.5,262.8 		"/>
		<path class="st3" d="M-320.4,326.3h18.3l14.7-45l1.3-3.9c2.3-7.2-3-14.6-10.6-14.6h-29.8l-6,18.5h26.9L-320.4,326.3z"/>
		<polygon class="st3" points="-325.7,326.3 -313.2,287.8 -334.8,287.8 -347.3,326.3 		"/>
		<path class="st2" d="M-353.2,326.3l12.5-38.4H-359l-7.8,23.8c-2.3,7.2,3,14.6,10.6,14.6L-353.2,326.3L-353.2,326.3z"/>
	</g>
	<g>
		<path class="st4" d="M-268.5,321.2c-0.2,0-0.4-0.1-0.6-0.2c-0.2-0.2-0.2-0.4-0.2-0.6V320c0-0.2,0.1-0.4,0.2-0.6
			c0.2-0.2,0.4-0.2,0.6-0.2h1.3c0.1,0,0.1,0,0.1-0.1v-5.8c0-0.1,0-0.1-0.1-0.1h-1c-0.2,0-0.4-0.1-0.6-0.2c-0.2-0.2-0.2-0.3-0.2-0.5
			s0.1-0.4,0.2-0.6c0.1-0.2,0.3-0.3,0.5-0.3c0.4-0.1,0.8-0.2,1.1-0.4c0.6-0.3,1.1-0.4,1.5-0.4h0.2c0.2,0,0.4,0.1,0.6,0.2
			c0.2,0.2,0.2,0.4,0.2,0.6v7.6c0,0.1,0,0.1,0.1,0.1h1c0.2,0,0.4,0.1,0.6,0.2c0.2,0.2,0.2,0.4,0.2,0.6v0.4c0,0.2-0.1,0.4-0.2,0.6
			c-0.2,0.2-0.4,0.2-0.6,0.2L-268.5,321.2L-268.5,321.2z"/>
		<path class="st4" d="M-248.2,320.3c0,0.2-0.1,0.4-0.3,0.6c-0.2,0.2-0.4,0.2-0.6,0.2h-0.9c-0.2,0-0.4-0.1-0.6-0.2
			c-0.1-0.1-0.2-0.3-0.2-0.5c0-1.2,0.3-2.6,0.8-4.1c0.4-1.1,1-2.3,1.8-3.5c0,0,0,0,0-0.1c0,0,0,0-0.1,0h-3.6c-0.2,0-0.4-0.1-0.6-0.2
			c-0.2-0.2-0.2-0.4-0.2-0.6v-0.5c0-0.2,0.1-0.4,0.2-0.6c0.2-0.2,0.4-0.2,0.6-0.2h5.6c0.2,0,0.4,0.1,0.5,0.2
			c0.1,0.2,0.2,0.3,0.2,0.5c0,0.5-0.2,1-0.5,1.4c-0.5,0.6-0.8,1.2-1.1,1.7c-0.3,0.5-0.5,1.1-0.7,1.8c-0.2,0.6-0.3,1.2-0.4,1.9
			S-248.1,319.5-248.2,320.3"/>
		<path class="st4" d="M-232.2,321.3c-1,0-1.8-0.4-2.4-1.1c-0.6-0.8-0.9-1.8-0.9-3.1c0-0.6,0.1-1.2,0.3-1.8c0.2-0.5,0.4-1,0.8-1.3
			c0.3-0.4,0.7-0.6,1.1-0.8s0.8-0.3,1.2-0.3c0.4,0,0.7,0.1,1,0.2c0.3,0.1,0.6,0.3,0.8,0.6l0,0l0,0l-0.1-1.1v-1.9
			c0-0.2,0.1-0.4,0.2-0.6c0.2-0.2,0.4-0.2,0.6-0.2h0.9c0.2,0,0.4,0.1,0.6,0.2c0.2,0.2,0.2,0.4,0.2,0.6v9.7c0,0.2-0.1,0.4-0.2,0.6
			c-0.2,0.2-0.4,0.2-0.6,0.2h-0.5c-0.2,0-0.4-0.1-0.6-0.2c-0.2-0.1-0.3-0.3-0.3-0.5v-0.1l0,0l0,0c-0.3,0.3-0.6,0.5-1,0.7
			C-231.5,321.3-231.9,321.3-232.2,321.3 M-231.6,319.3c0.5,0,0.9-0.2,1.1-0.6c0-0.1,0.1-0.1,0.1-0.2v-3c0-0.1,0-0.1-0.1-0.2
			c-0.3-0.3-0.7-0.4-1.2-0.4c-0.4,0-0.7,0.2-1,0.5c-0.3,0.4-0.4,0.9-0.4,1.6C-233,318.5-232.5,319.3-231.6,319.3"/>
		<path class="st4" d="M-213.8,321.3c-1.2,0-2.1-0.4-2.9-1.1c-0.8-0.8-1.1-1.8-1.1-3.1c0-0.9,0.2-1.6,0.6-2.3s0.9-1.1,1.5-1.5
			c0.6-0.3,1.3-0.5,2.1-0.5c0.6,0,1.2,0.1,1.7,0.4c0.2,0.1,0.3,0.3,0.3,0.5v0.1c0,0.2-0.1,0.3-0.2,0.5l-0.2,0.3
			c-0.2,0.2-0.4,0.3-0.7,0.3c-0.1,0-0.3,0-0.5-0.1c-0.1,0-0.2,0-0.3,0c-0.5,0-1,0.2-1.3,0.6c-0.3,0.4-0.5,0.9-0.5,1.6
			c0,0.7,0.2,1.2,0.5,1.6c0.3,0.4,0.7,0.6,1.2,0.6c0.2,0,0.5-0.1,0.7-0.2c0.1-0.1,0.3-0.1,0.4-0.1s0.1,0,0.2,0
			c0.2,0,0.4,0.2,0.5,0.3l0.2,0.2c0.1,0.1,0.1,0.3,0.1,0.5c0,0.1,0,0.1,0,0.2c0,0.2-0.2,0.4-0.4,0.5
			C-212.4,321.2-213,321.3-213.8,321.3"/>
		<path class="st4" d="M-199.8,321.3c-0.4,0-0.8-0.1-1.1-0.4c-0.3-0.3-0.4-0.7-0.4-1.1c0-0.4,0.1-0.8,0.4-1.1s0.6-0.4,1.1-0.4
			c0.4,0,0.8,0.1,1.1,0.4c0.3,0.3,0.4,0.7,0.4,1.1c0,0.4-0.1,0.8-0.4,1.1C-199,321.2-199.3,321.3-199.8,321.3"/>
		<path class="st4" d="M-184.2,321.3c-1.2,0-2.1-0.4-2.9-1.1c-0.8-0.8-1.1-1.8-1.1-3.1c0-0.9,0.2-1.6,0.6-2.3s0.9-1.1,1.5-1.5
			c0.6-0.3,1.3-0.5,2.1-0.5c0.6,0,1.2,0.1,1.7,0.4c0.2,0.1,0.3,0.3,0.3,0.5v0.1c0,0.2-0.1,0.3-0.2,0.5l-0.2,0.3
			c-0.2,0.2-0.4,0.3-0.7,0.3c-0.1,0-0.3,0-0.5-0.1c-0.1,0-0.2,0-0.3,0c-0.5,0-1,0.2-1.3,0.6c-0.3,0.4-0.5,0.9-0.5,1.6
			c0,0.7,0.2,1.2,0.5,1.6c0.3,0.4,0.7,0.6,1.2,0.6c0.2,0,0.5-0.1,0.7-0.2c0.1-0.1,0.3-0.1,0.4-0.1s0.1,0,0.2,0
			c0.2,0,0.4,0.2,0.5,0.3l0.2,0.2c0.1,0.1,0.1,0.3,0.1,0.5c0,0.1,0,0.1,0,0.2c0,0.2-0.2,0.4-0.4,0.5
			C-182.8,321.2-183.5,321.3-184.2,321.3"/>
		<path class="st4" d="M-168.6,321.3c-0.5,0-1-0.1-1.5-0.3s-0.9-0.5-1.3-0.8c-0.4-0.4-0.7-0.8-0.9-1.3c-0.2-0.5-0.3-1.1-0.3-1.8
			c0-0.6,0.1-1.2,0.3-1.8c0.2-0.5,0.5-1,0.9-1.3c0.4-0.4,0.8-0.6,1.3-0.8s1-0.3,1.5-0.3s1,0.1,1.5,0.3s0.9,0.5,1.3,0.8
			c0.4,0.4,0.7,0.8,0.9,1.3s0.3,1.1,0.3,1.8c0,0.6-0.1,1.2-0.3,1.8c-0.2,0.5-0.5,1-0.9,1.3c-0.4,0.4-0.8,0.6-1.3,0.8
			S-168.1,321.3-168.6,321.3 M-168.6,319.3c0.5,0,0.8-0.2,1-0.6c0.2-0.4,0.3-0.9,0.3-1.6c0-0.7-0.1-1.2-0.3-1.6
			c-0.2-0.4-0.6-0.6-1-0.6c-0.5,0-0.8,0.2-1,0.6c-0.2,0.4-0.3,0.9-0.3,1.6c0,0.7,0.1,1.2,0.3,1.6
			C-169.4,319.2-169.1,319.3-168.6,319.3"/>
		<path class="st4" d="M-153.8,321.2c-0.2,0-0.4-0.1-0.6-0.2c-0.2-0.2-0.2-0.4-0.2-0.6V314c0-0.2,0.1-0.4,0.2-0.6
			c0.2-0.2,0.4-0.2,0.6-0.2h0.4c0.2,0,0.4,0.1,0.6,0.2c0.2,0.2,0.3,0.3,0.3,0.6v0.2l0,0l0,0c0.4-0.4,0.8-0.7,1.1-0.9
			c0.4-0.2,0.8-0.3,1.3-0.3c1,0,1.7,0.4,2.2,1.2c0,0.1,0.1,0.1,0.1,0c0.4-0.4,0.8-0.7,1.2-0.9s0.8-0.3,1.3-0.3
			c0.8,0,1.5,0.3,1.9,0.9c0.4,0.6,0.6,1.4,0.6,2.4v4.2c0,0.2-0.1,0.4-0.2,0.6c-0.2,0.2-0.4,0.2-0.6,0.2h-0.9c-0.2,0-0.4-0.1-0.6-0.2
			c-0.2-0.2-0.2-0.4-0.2-0.6v-4c0-0.5-0.1-0.9-0.2-1.1c-0.1-0.2-0.4-0.3-0.7-0.3c-0.4,0-0.8,0.2-1.2,0.7c0,0-0.1,0.1-0.1,0.2v4.5
			c0,0.2-0.1,0.4-0.2,0.6c-0.2,0.2-0.4,0.2-0.6,0.2h-0.9c-0.2,0-0.4-0.1-0.6-0.2c-0.2-0.2-0.2-0.4-0.2-0.6v-4c0-0.5-0.1-0.9-0.2-1.1
			c-0.1-0.2-0.4-0.3-0.7-0.3c-0.4,0-0.8,0.2-1.2,0.7c0,0-0.1,0.1-0.1,0.2v4.5c0,0.2-0.1,0.4-0.2,0.6c-0.2,0.2-0.4,0.2-0.6,0.2h-0.8
			C-153.8,321.3-153.8,321.2-153.8,321.2z"/>
		<g class="st1">
			<path class="st2" d="M-252,303.2h-7.6v-24.1c-3,2.1-6.6,3.5-10.9,4.1l-0.6-5.9c5.3-2.2,9.5-4,11.6-8.4h7.6v34.3L-252,303.2
				L-252,303.2z"/>
			<path class="st2" d="M-233.4,303.2h-7.1c1-9.6,4.4-19.2,11.4-28.9h-17.6v-4.9h25.2v4.9C-228.8,284.3-232.8,294-233.4,303.2z"/>
			<path class="st2" d="M-208.3,295.5c1.9-1,3-1.3,4.4-2l0.7,5.7c-3.2,2.5-7.6,3.9-11.9,5v-20.3h-3v-5l9.8,0.3V295.5z M-210.3,268
				c0.5,2.7,2,5.2,2.6,8.2h-6.9c-0.5-2.6-1.9-4.8-1.9-8.2H-210.3z M-181.6,274.3h-5.9v23.8c0,3.8-2,5.7-5.9,5.7h-6.2l-0.1-4.6h3
				c1.3,0.1,1.9-0.2,1.8-1.6v-23.3h-9.7v-4.8h22.8v4.8L-181.6,274.3L-181.6,274.3z"/>
			<path class="st2" d="M-167,270.5c-0.2-0.8,0.1-1.7,0.5-2.7h-5.4c-0.8,0.4-0.9,2.7-0.9,2.7h-3.5v13h-1.6v4.1h1.6v4.1
				c-0.3,7.1-0.2,8.9-2.1,8.6l0.2,4c5.8,0,7.4-6.6,7-13.2v-0.5c0.3,1.5,0.5,3.1,0.6,4.9h3.3v2.7c0.1,1.3-0.4,1.9-1.4,1.7h-1.3v4h3
				c3.3,0.1,4.9-1.5,4.8-4.8v-28.7h-4.8L-167,270.5L-167,270.5z M-167.1,294.2c-0.1-1.4-0.4-3-1-4.8h-3v-1.7h4V294.2z M-167.1,283.5
				h-4v-6.2c0.3,1.8,0.5,3.1,0.5,3.8c0.1,0.3,0.2,0.6,0.2,0.8h3.2c-0.1-2.2-0.4-4.2-1-5.9h-2.9v-1.4h4L-167.1,283.5L-167.1,283.5z"
				/>
			<path class="st2" d="M-141,278.3v4.3c-0.5-0.2-1.9-0.8-1.9-0.8l-1.1-0.5l-1.7-1.1c-2.3-1.4-4.3-3.3-5.9-5.7
				c-1.4,2.4-3.1,4.3-5.2,5.7l-3.4,1.8c-0.7,0.4-1,0.5-1.6,0.6v-4.3c3.2-2.5,5.5-6.1,7-10.6h6.5C-146.8,271.8-144.3,275.5-141,278.3
				z"/>
		</g>
		<path class="st2" d="M-141.8,296.2v2.4c0.1,3.6-1.6,5.3-5.1,5.2h-8.2c-3.6,0.1-5.3-1.8-5.2-5.7v-14.6v-1.1h17v0.6v6.2
			c0.2,4.2-1.6,6.5-5.8,6.3h-3l-0.2-4.8l1.3,0.1c1.3,0.1,1.9-0.5,1.7-1.9v-2.7h-4.6v11.3c-0.1,1.6,0.5,2.3,1.9,2.2h3.2
			c1.3,0.1,1.8-0.5,1.7-1.9l-0.3-1.6H-141.8z"/>
	</g>
</g>
</svg>
