<?xml version="1.0" encoding="utf-8"?>
<!-- Generator: Adobe Illustrator 24.1.1, SVG Export Plug-In . SVG Version: 6.00 Build 0)  -->
<svg version="1.1" id="图层_1" xmlns="http://www.w3.org/2000/svg" xmlns:xlink="http://www.w3.org/1999/xlink" x="0px" y="0px"
	 viewBox="0 0 120 30" style="enable-background:new 0 0 120 30;" xml:space="preserve">
<style type="text/css">
	.st0{opacity:0;}
	.st1{fill:#FFFFFF;}
	.st2{fill:#FFFFFF;fill-opacity:0;}
</style>
<g class="st0">
	<rect class="st1" width="120" height="30"/>
</g>
<rect class="st2" width="120" height="30"/>
<polygon class="st1" points="5.2,0 3.8,8 12.7,8.1 14,0 "/>
<polygon class="st1" points="3.5,10.5 0,29.7 20.2,29.8 21.5,21.6 10.1,21.4 12.2,10.6 "/>
<polygon class="st1" points="32.1,30 33.5,21.5 24.7,21.5 23.4,30 "/>
<polygon class="st1" points="33.9,19.4 37.3,0.2 17.1,0.1 15.8,8.2 27.2,8.5 25.2,19.3 "/>
<polygon class="st1" points="14.8,10.6 13.3,19.3 21.9,19.4 23.7,10.7 "/>
<path class="st1" d="M44,23.8l0.3-1.1c0.9-0.2,1.8-0.5,2.7-0.8h2l-1.4,5.6h-2.2l1.1-4.5C45.7,23.4,44.9,23.6,44,23.8z"/>
<path class="st1" d="M52.9,22h6.3L59,23.1l-4.2,4.6h-2.1l4.2-4.7h-4.3L52.9,22z"/>
<path class="st1" d="M66.9,24.1l0.5-2.3h2.2l-1.2,5.2c-0.1,0.3-0.1,0.5-0.2,0.8h-2.2c0-0.1,0.1-0.2,0.1-0.3c0-0.1,0-0.2,0-0.3
	c-0.7,0.5-1.5,0.7-2.3,0.6c-1.9,0-2.8-0.8-2.5-2.1c0.4-1.4,1.6-2.1,3.8-2.2C65.7,23.5,66.4,23.7,66.9,24.1z M63.5,25.6
	c-0.3,0.9,0.1,1.4,1.2,1.4c0.8,0,1.6-0.5,1.9-1.3c0.1-0.9-0.3-1.4-1.2-1.4C64.5,24.1,63.7,24.7,63.5,25.6L63.5,25.6z"/>
<path class="st1" d="M77.6,25.1h-2.1c0-0.5-0.3-0.7-0.9-0.7s-1,0.4-1.3,1.2v0.2c0,0,0,0.1,0,0.2c-0.2,0.8,0,1.3,0.7,1.2
	c0.6,0.1,1.1-0.3,1.3-0.8h2.1c-0.4,1-1.6,1.5-3.5,1.5S71,27,71.3,25.7c0.4-1.4,1.6-2.1,3.6-2.2C76.8,23.6,77.7,24.1,77.6,25.1z"/>
<path class="st1" d="M81.5,27.8h-1.8l0.2-1h1.8L81.5,27.8z"/>
<path class="st1" d="M91.4,25.1h-2.1c0-0.5-0.3-0.7-0.9-0.7s-1,0.4-1.3,1.2v0.2c0,0,0,0.1,0,0.2c-0.2,0.8,0,1.3,0.7,1.2
	c0.6,0.1,1.1-0.3,1.3-0.8h2.1c-0.4,1-1.6,1.5-3.5,1.5S84.8,27,85,25.7c0.4-1.4,1.6-2.1,3.6-2.2C90.6,23.6,91.5,24.1,91.4,25.1z"/>
<path class="st1" d="M101,25.8c-0.5,1.4-1.9,2-4.3,2.1s-3.4-0.7-3.1-2.1s1.7-2.1,4.1-2.2S101.1,24.4,101,25.8z M95.8,25.8
	c-0.3,0.9,0,1.4,1.1,1.4c0.9,0.1,1.7-0.5,1.9-1.3c0.2-0.9-0.2-1.4-1.2-1.4C96.8,24.3,95.9,24.9,95.8,25.8L95.8,25.8z"/>
<path class="st1" d="M106.4,23.7l-0.1,0.5l0,0c0.7-0.4,1.5-0.6,2.3-0.6c0.8,0,1.5,0.2,2.1,0.8c0.8-0.5,1.7-0.8,2.6-0.7
	c0.8,0,1.5,0.2,2.1,0.8c0.1,0.3,0.1,0.7-0.1,1l-0.6,2.5h-2.2l0.6-2.5c0.2-0.6-0.1-0.9-0.9-1c-0.7,0-1.3,0.4-1.6,1l-0.6,2.6H108
	l0.6-2.6c0.2-0.6-0.2-1-0.9-1c-0.7,0-1.3,0.4-1.6,1l-0.6,2.5h-2.1l1-4.1H106.4z"/>
<path class="st1" d="M41.6,8.3l0.6-3c2-0.6,3.9-1.3,5.8-2.2h4.2l-3,15h-4.6L47,6.3C45.2,7.1,43.4,7.7,41.6,8.3z"/>
<path class="st1" d="M53.6,3.1h13.6l-0.5,2.8l-9,12.2h-4.5l9.2-12.6H53L53.6,3.1z"/>
<path class="st1" d="M69.5,9.4l0.4-2.3h5.8l-1.8,9.4c-0.1,0.3,0,0.3,0.3,0.3h2.4L76,18.9h-4.9c-1.3,0.1-1.7-0.5-1.3-1.7l1.6-7.8
	L69.5,9.4z M77.2,4.7h-6.8l0.5-2.5h6.8L77.2,4.7z M87.8,4.7h-9.6L78.9,2l14.7,0L93,4.8h-1.3l-2.4,12.4c-0.1,1.3-1,1.9-2.5,1.8h-5.7
	l0.5-2.3h3.6c0.2,0.1,0.4,0,0.5-0.4L87.8,4.7z"/>
<path class="st1" d="M97.7,3.1h2.7l0.3-0.9h4.3l-0.3,0.9h2.9l-2.8,14.1c-0.2,1.1-1.1,1.7-2.6,1.6h-2.7l0.6-2.2h1
	c0.3,0,0.4-0.2,0.5-0.5l0.8-4.1h-3.3l-1,5.3c-0.2,1.2-1,1.7-2.5,1.7h-2l0.5-2.3c0.6,0.1,0.9-0.1,0.9-0.6l0.8-4.3h-0.9l0.6-2.4h0.9
	L97.7,3.1z M100,15.4c-0.7,0-0.9-0.2-0.7-0.7l0.4-1.8h1.4l-0.2,0.9c0,0.2,0.1,0.3,0.3,0.3h0.3l-0.3,1.4H100z M99.8,9.5h3.3l0.8-3.9
	h-3.3L99.8,9.5z M101.2,8.9c-0.5,0-0.6-0.3-0.5-0.7l0.3-1.8h1.4l-0.1,0.8c-0.1,0.2,0,0.3,0.2,0.3h0.3l-0.4,1.5H101.2z M105.7,17.3
	l1.8-9.1l11.6,0.1l-1,5.2c-0.1,1.1-0.9,1.7-2.3,1.6h-4.5l0.5-2.6h2.1c0.3,0.1,0.5,0,0.5-0.4l0.3-1.4h-4l-1.1,5.6
	c0,0.3,0.2,0.5,0.6,0.5h7.4l-0.6,2.2h-9.6C105.9,18.9,105.3,18.4,105.7,17.3L105.7,17.3z M108.2,5.3h0.7c0.2,0,0.4-0.2,0.7-0.6
	l1.8-2.5h6.7l0.8,2.6c0.1,0.3,0.5,0.5,1.1,0.5l-0.5,2.3h-1.8c-1.1,0-1.6-0.3-1.7-0.8l-0.9-1.9h-1.9l-1.1,1.8c-0.6,0.8-1.5,1.1-2.4,1
	h-2L108.2,5.3z"/>
</svg>
