<?xml version="1.0" encoding="utf-8"?>
<!-- Generator: Adobe Illustrator 24.1.1, SVG Export Plug-In . SVG Version: 6.00 Build 0)  -->
<svg version="1.1" id="图层_1" xmlns="http://www.w3.org/2000/svg" xmlns:xlink="http://www.w3.org/1999/xlink" x="0px" y="0px"
	 viewBox="0 0 157 28" style="enable-background:new 0 0 157 28;" xml:space="preserve">
<style type="text/css">
	.st0{opacity:0;fill:#FFFFFF;}
	.st1{fill:#FFFFFF;}
	.st2{enable-background:new    ;}
</style>
<g>
	<rect class="st0" width="157" height="28"/>
	<g>
		<g>
			<polygon class="st1" points="41.4,8.2 33.4,8.2 36,0 44.1,0 			"/>
			<path class="st1" d="M49.4,28h8l6.5-19.8l0.6-1.7c1-3.2-1.3-6.4-4.7-6.4H46.7l-2.6,8.1h11.8L49.4,28z"/>
			<polygon class="st1" points="47,28 52.5,11 43,11 37.5,28 			"/>
			<path class="st1" d="M34.9,28l5.5-16.9h-8L29,21.5c-1,3.2,1.3,6.4,4.7,6.4H34.9L34.9,28z"/>
		</g>
		<g>
			<path class="st1" d="M72.2,25.7c-0.1,0-0.2,0-0.3-0.1c-0.1-0.1-0.1-0.2-0.1-0.3v-0.2c0-0.1,0-0.2,0.1-0.3
				c0.1-0.1,0.2-0.1,0.3-0.1h0.6c0,0,0,0,0,0v-2.6c0,0,0,0,0,0h-0.4c-0.1,0-0.2,0-0.3-0.1C72,22,72,22,72,21.9s0-0.2,0.1-0.3
				c0-0.1,0.1-0.1,0.2-0.1c0.2,0,0.4-0.1,0.5-0.2c0.3-0.1,0.5-0.2,0.7-0.2h0.1c0.1,0,0.2,0,0.3,0.1c0.1,0.1,0.1,0.2,0.1,0.3v3.3
				c0,0,0,0,0,0h0.4c0.1,0,0.2,0,0.3,0.1c0.1,0.1,0.1,0.2,0.1,0.3v0.2c0,0.1,0,0.2-0.1,0.3c-0.1,0.1-0.2,0.1-0.3,0.1L72.2,25.7
				L72.2,25.7z"/>
			<path class="st1" d="M81.1,25.3c0,0.1,0,0.2-0.1,0.3c-0.1,0.1-0.2,0.1-0.3,0.1h-0.4c-0.1,0-0.2,0-0.3-0.1c0,0-0.1-0.1-0.1-0.2
				c0-0.5,0.1-1.1,0.4-1.8c0.2-0.5,0.4-1,0.8-1.5c0,0,0,0,0,0c0,0,0,0,0,0h-1.6c-0.1,0-0.2,0-0.3-0.1c-0.1-0.1-0.1-0.2-0.1-0.3v-0.2
				c0-0.1,0-0.2,0.1-0.3c0.1-0.1,0.2-0.1,0.3-0.1H82c0.1,0,0.2,0,0.2,0.1c0,0.1,0.1,0.1,0.1,0.2c0,0.2-0.1,0.4-0.2,0.6
				c-0.2,0.3-0.4,0.5-0.5,0.7s-0.2,0.5-0.3,0.8c-0.1,0.3-0.1,0.5-0.2,0.8C81,24.7,81.2,25,81.1,25.3"/>
			<path class="st1" d="M88.2,25.8c-0.4,0-0.8-0.2-1.1-0.5c-0.3-0.4-0.4-0.8-0.4-1.4c0-0.3,0-0.5,0.1-0.8c0.1-0.2,0.2-0.4,0.4-0.6
				c0.1-0.2,0.3-0.3,0.5-0.4c0.2-0.1,0.4-0.1,0.5-0.1s0.3,0,0.4,0.1c0.1,0,0.3,0.1,0.4,0.3l0,0l0,0l0-0.5v-0.8c0-0.1,0-0.2,0.1-0.3
				c0.1-0.1,0.2-0.1,0.3-0.1h0.4c0.1,0,0.2,0,0.3,0.1c0.1,0.1,0.1,0.2,0.1,0.3v4.3c0,0.1,0,0.2-0.1,0.3c-0.1,0.1-0.2,0.1-0.3,0.1
				h-0.2c-0.1,0-0.2,0-0.3-0.1c-0.1,0-0.1-0.1-0.1-0.2v0l0,0l0,0c-0.1,0.1-0.3,0.2-0.4,0.3C88.5,25.8,88.3,25.8,88.2,25.8
				 M88.4,24.9c0.2,0,0.4-0.1,0.5-0.3c0,0,0,0,0-0.1v-1.3c0,0,0,0,0-0.1c-0.1-0.1-0.3-0.2-0.5-0.2c-0.2,0-0.3,0.1-0.4,0.2
				c-0.1,0.2-0.2,0.4-0.2,0.7C87.8,24.5,88,24.9,88.4,24.9"/>
			<path class="st1" d="M96.3,25.8c-0.5,0-0.9-0.2-1.3-0.5c-0.4-0.4-0.5-0.8-0.5-1.4c0-0.4,0.1-0.7,0.3-1c0.2-0.3,0.4-0.5,0.7-0.7
				c0.3-0.1,0.6-0.2,0.9-0.2c0.3,0,0.5,0,0.7,0.2c0.1,0,0.1,0.1,0.1,0.2v0c0,0.1,0,0.1-0.1,0.2L97,22.8c-0.1,0.1-0.2,0.1-0.3,0.1
				c0,0-0.1,0-0.2,0c0,0-0.1,0-0.1,0c-0.2,0-0.4,0.1-0.6,0.3s-0.2,0.4-0.2,0.7c0,0.3,0.1,0.5,0.2,0.7c0.1,0.2,0.3,0.3,0.5,0.3
				c0.1,0,0.2,0,0.3-0.1c0,0,0.1,0,0.2,0s0,0,0.1,0c0.1,0,0.2,0.1,0.2,0.1l0.1,0.1c0,0,0,0.1,0,0.2c0,0,0,0,0,0.1
				c0,0.1-0.1,0.2-0.2,0.2C96.9,25.7,96.6,25.8,96.3,25.8"/>
			<path class="st1" d="M102.4,25.8c-0.2,0-0.4,0-0.5-0.2c-0.1-0.1-0.2-0.3-0.2-0.5c0-0.2,0-0.4,0.2-0.5s0.3-0.2,0.5-0.2
				c0.2,0,0.4,0,0.5,0.2c0.1,0.1,0.2,0.3,0.2,0.5c0,0.2,0,0.4-0.2,0.5C102.8,25.7,102.6,25.8,102.4,25.8"/>
			<path class="st1" d="M109.3,25.8c-0.5,0-0.9-0.2-1.3-0.5c-0.4-0.4-0.5-0.8-0.5-1.4c0-0.4,0.1-0.7,0.3-1c0.2-0.3,0.4-0.5,0.7-0.7
				c0.3-0.1,0.6-0.2,0.9-0.2c0.3,0,0.5,0,0.7,0.2c0.1,0,0.1,0.1,0.1,0.2v0c0,0.1,0,0.1-0.1,0.2l-0.1,0.1c-0.1,0.1-0.2,0.1-0.3,0.1
				c0,0-0.1,0-0.2,0c0,0-0.1,0-0.1,0c-0.2,0-0.4,0.1-0.6,0.3s-0.2,0.4-0.2,0.7c0,0.3,0.1,0.5,0.2,0.7c0.1,0.2,0.3,0.3,0.5,0.3
				c0.1,0,0.2,0,0.3-0.1c0,0,0.1,0,0.2,0s0,0,0.1,0c0.1,0,0.2,0.1,0.2,0.1l0.1,0.1c0,0,0,0.1,0,0.2c0,0,0,0,0,0.1
				c0,0.1-0.1,0.2-0.2,0.2C109.9,25.7,109.6,25.8,109.3,25.8"/>
			<path class="st1" d="M116.1,25.8c-0.2,0-0.4,0-0.7-0.1c-0.2-0.1-0.4-0.2-0.6-0.4c-0.2-0.2-0.3-0.4-0.4-0.6
				c-0.1-0.2-0.1-0.5-0.1-0.8c0-0.3,0-0.5,0.1-0.8c0.1-0.2,0.2-0.4,0.4-0.6c0.2-0.2,0.4-0.3,0.6-0.4c0.2-0.1,0.4-0.1,0.7-0.1
				c0.2,0,0.4,0,0.7,0.1c0.2,0.1,0.4,0.2,0.6,0.4c0.2,0.2,0.3,0.4,0.4,0.6c0.1,0.2,0.1,0.5,0.1,0.8c0,0.3,0,0.5-0.1,0.8
				c-0.1,0.2-0.2,0.4-0.4,0.6c-0.2,0.2-0.4,0.3-0.6,0.4C116.6,25.7,116.4,25.8,116.1,25.8 M116.1,24.9c0.2,0,0.4-0.1,0.4-0.3
				c0.1-0.2,0.1-0.4,0.1-0.7c0-0.3,0-0.5-0.1-0.7s-0.3-0.3-0.4-0.3c-0.2,0-0.4,0.1-0.4,0.3c-0.1,0.2-0.1,0.4-0.1,0.7
				c0,0.3,0,0.5,0.1,0.7C115.8,24.8,115.9,24.9,116.1,24.9"/>
			<path class="st1" d="M122.6,25.7c-0.1,0-0.2,0-0.3-0.1c-0.1-0.1-0.1-0.2-0.1-0.3v-2.8c0-0.1,0-0.2,0.1-0.3
				c0.1-0.1,0.2-0.1,0.3-0.1h0.2c0.1,0,0.2,0,0.3,0.1c0.1,0.1,0.1,0.1,0.1,0.3v0.1l0,0l0,0c0.2-0.2,0.4-0.3,0.5-0.4
				c0.2-0.1,0.4-0.1,0.6-0.1c0.4,0,0.7,0.2,1,0.5c0,0,0,0,0,0c0.2-0.2,0.4-0.3,0.5-0.4c0.2-0.1,0.4-0.1,0.6-0.1
				c0.4,0,0.7,0.1,0.8,0.4c0.2,0.3,0.3,0.6,0.3,1.1v1.8c0,0.1,0,0.2-0.1,0.3c-0.1,0.1-0.2,0.1-0.3,0.1h-0.4c-0.1,0-0.2,0-0.3-0.1
				c-0.1-0.1-0.1-0.2-0.1-0.3v-1.8c0-0.2,0-0.4-0.1-0.5c0-0.1-0.2-0.1-0.3-0.1c-0.2,0-0.4,0.1-0.5,0.3c0,0,0,0,0,0.1v2
				c0,0.1,0,0.2-0.1,0.3c-0.1,0.1-0.2,0.1-0.3,0.1h-0.4c-0.1,0-0.2,0-0.3-0.1c-0.1-0.1-0.1-0.2-0.1-0.3v-1.8c0-0.2,0-0.4-0.1-0.5
				c0-0.1-0.2-0.1-0.3-0.1c-0.2,0-0.4,0.1-0.5,0.3c0,0,0,0,0,0.1v2c0,0.1,0,0.2-0.1,0.3c-0.1,0.1-0.2,0.1-0.3,0.1L122.6,25.7
				C122.6,25.8,122.6,25.7,122.6,25.7z"/>
			<g class="st2">
				<path class="st1" d="M79.5,17.8h-3.3V7.2c-1.3,0.9-2.9,1.5-4.8,1.8l-0.3-2.6c2.3-1,4.2-1.8,5.1-3.7h3.3L79.5,17.8L79.5,17.8
					L79.5,17.8z"/>
				<path class="st1" d="M87.6,17.8h-3.1c0.4-4.2,1.9-8.4,5-12.7h-7.7V2.9h11.1v2.2C89.7,9.5,87.9,13.8,87.6,17.8z"/>
				<path class="st1" d="M98.7,14.4c0.8-0.4,1.3-0.6,1.9-0.9l0.3,2.5c-1.4,1.1-3.3,1.7-5.2,2.2V9.3h-1.3V7.1l4.3,0.1V14.4z
					 M97.8,2.3c0.2,1.2,0.9,2.3,1.1,3.6h-3c-0.2-1.1-0.8-2.1-0.8-3.6H97.8z M110.4,5.1h-2.6v10.5c0,1.7-0.9,2.5-2.6,2.5h-2.7l0-2
					h1.3c0.6,0,0.8-0.1,0.8-0.7V5.1h-4.3V3h10L110.4,5.1L110.4,5.1L110.4,5.1z"/>
				<path class="st1" d="M116.8,3.4c-0.1-0.4,0-0.7,0.2-1.2h-2.4c-0.4,0.2-0.4,1.2-0.4,1.2h-1.5v5.7H112v1.8h0.7v1.8
					c-0.1,3.1-0.1,3.9-0.9,3.8l0.1,1.8c2.6,0,3.3-2.9,3.1-5.8v-0.2c0.1,0.7,0.2,1.4,0.3,2.2h1.5v1.2c0,0.6-0.2,0.8-0.6,0.7h-0.6v1.8
					h1.3c1.5,0,2.2-0.7,2.1-2.1V3.4L116.8,3.4L116.8,3.4L116.8,3.4z M116.8,13.8c0-0.6-0.2-1.3-0.4-2.1H115V11h1.8V13.8z M116.8,9.1
					H115V6.4c0.1,0.8,0.2,1.4,0.2,1.7c0,0.1,0.1,0.3,0.1,0.4h1.4c0-1-0.2-1.8-0.4-2.6H115V5.2h1.8V9.1L116.8,9.1z"/>
				<path class="st1" d="M128.3,6.9v1.9c-0.2-0.1-0.8-0.4-0.8-0.4L127,8.2l-0.7-0.5c-1-0.6-1.9-1.5-2.6-2.5
					c-0.6,1.1-1.4,1.9-2.3,2.5l-1.5,0.8c-0.3,0.2-0.4,0.2-0.7,0.3V6.9c1.4-1.1,2.4-2.7,3.1-4.7h2.9C125.7,4,126.8,5.6,128.3,6.9z"/>
			</g>
			<path class="st1" d="M127.9,14.7v1.1c0,1.6-0.7,2.3-2.2,2.3h-3.6c-1.6,0-2.3-0.8-2.3-2.5V9.1V8.7h7.5v0.3v2.7
				c0.1,1.8-0.7,2.9-2.6,2.8h-1.3l-0.1-2.1l0.6,0c0.6,0,0.8-0.2,0.7-0.8v-1.2h-2v5c0,0.7,0.2,1,0.8,1h1.4c0.6,0,0.8-0.2,0.7-0.8
				l-0.1-0.7H127.9z"/>
		</g>
	</g>
</g>
</svg>
