<?xml version="1.0" standalone="no"?><!DOCTYPE svg PUBLIC "-//W3C//DTD SVG 1.1//EN" "http://www.w3.org/Graphics/SVG/1.1/DTD/svg11.dtd"><svg t="1640603863663" class="icon" viewBox="0 0 1735 1024" version="1.1" xmlns="http://www.w3.org/2000/svg" p-id="5537" xmlns:xlink="http://www.w3.org/1999/xlink" width="338.8671875" height="200"><defs><style type="text/css"></style></defs><path d="M995.388235 1024H299.670588c-90.352941 0-162.635294-72.282353-162.635294-162.635294V162.635294c0-90.352941 72.282353-162.635294 162.635294-162.635294H995.388235c90.352941 0 162.635294 72.282353 162.635294 162.635294v695.717647c0 93.364706-72.282353 165.647059-162.635294 165.647059z" fill="#2AA8DE" p-id="5538"></path><path d="M983.341176 647.529412c-6.023529-72.282353-54.211765-132.517647-81.317647-165.647059 3.011765-9.035294 12.047059-60.235294-27.105882-96.376471v-3.011764c0-141.552941-102.4-246.964706-228.894118-246.964706-126.494118 0-228.894118 102.4-228.894117 246.964706v3.011764C380.988235 421.647059 390.023529 472.847059 396.047059 481.882353c-27.105882 30.117647-78.305882 93.364706-81.317647 165.647059 0 18.070588 3.011765 48.188235 12.047059 60.235294 12.047059 15.058824 42.164706-3.011765 66.258823-51.2 6.023529 21.082353 21.082353 57.223529 54.211765 99.388235-54.211765 12.047059-69.270588 66.258824-51.2 96.376471 12.047059 21.082353 42.164706 36.141176 93.364706 36.141176 90.352941 0 129.505882-24.094118 147.57647-42.164706 3.011765-3.011765 9.035294-6.023529 15.058824-6.023529s12.047059 3.011765 15.058823 6.023529c18.070588 18.070588 57.223529 42.164706 147.576471 42.164706 51.2 0 81.317647-18.070588 93.364706-36.141176 18.070588-30.117647 3.011765-84.329412-51.2-96.376471 33.129412-42.164706 48.188235-78.305882 54.211765-99.388235 21.082353 48.188235 54.211765 66.258824 66.258823 51.2 3.011765-12.047059 6.023529-42.164706 6.023529-60.235294z" fill="#FFFFFF" p-id="5539"></path></svg>